<?xml version="1.0" encoding="UTF-8" standalone="no"?>
<!DOCTYPE svg PUBLIC "-//W3C//DTD SVG 1.1//EN"
 "http://www.w3.org/Graphics/SVG/1.1/DTD/svg11.dtd">
<!-- Generated by graphviz version 2.43.0 (0)
 -->
<!-- Title: %3 Pages: 1 -->
<svg width="1572pt" height="476pt"
 viewBox="0.00 0.00 1572.00 476.00" xmlns="http://www.w3.org/2000/svg" xmlns:xlink="http://www.w3.org/1999/xlink">
<g id="graph0" class="graph" transform="scale(1 1) rotate(0) translate(4 472)">
<title>%3</title>
<polygon fill="white" stroke="transparent" points="-4,4 -4,-472 1568,-472 1568,4 -4,4"/>
<!-- [root] aws_instance.Application_instance (expand) -->
<g id="node1" class="node">
<title>[root] aws_instance.Application_instance (expand)</title>
<polygon fill="none" stroke="black" points="958,-252 695,-252 695,-216 958,-216 958,-252"/>
<text text-anchor="middle" x="826.5" y="-230.3" font-family="Times,serif" font-size="14.00">aws_instance.Application_instance</text>
</g>
<!-- [root] aws_security_group.allow_ssh_3000 (expand) -->
<g id="node9" class="node">
<title>[root] aws_security_group.allow_ssh_3000 (expand)</title>
<polygon fill="none" stroke="black" points="944,-180 671,-180 671,-144 944,-144 944,-180"/>
<text text-anchor="middle" x="807.5" y="-158.3" font-family="Times,serif" font-size="14.00">aws_security_group.allow_ssh_3000</text>
</g>
<!-- [root] aws_instance.Application_instance (expand)&#45;&gt;[root] aws_security_group.allow_ssh_3000 (expand) -->
<g id="edge1" class="edge">
<title>[root] aws_instance.Application_instance (expand)&#45;&gt;[root] aws_security_group.allow_ssh_3000 (expand)</title>
<path fill="none" stroke="black" d="M821.8,-215.7C819.69,-207.9 817.14,-198.51 814.78,-189.83"/>
<polygon fill="black" stroke="black" points="818.14,-188.84 812.14,-180.1 811.38,-190.67 818.14,-188.84"/>
</g>
<!-- [root] aws_subnet.subnet&#45;2 (expand) -->
<g id="node11" class="node">
<title>[root] aws_subnet.subnet&#45;2 (expand)</title>
<polygon fill="none" stroke="black" points="653,-180 486,-180 486,-144 653,-144 653,-180"/>
<text text-anchor="middle" x="569.5" y="-158.3" font-family="Times,serif" font-size="14.00">aws_subnet.subnet&#45;2</text>
</g>
<!-- [root] aws_instance.Application_instance (expand)&#45;&gt;[root] aws_subnet.subnet&#45;2 (expand) -->
<g id="edge2" class="edge">
<title>[root] aws_instance.Application_instance (expand)&#45;&gt;[root] aws_subnet.subnet&#45;2 (expand)</title>
<path fill="none" stroke="black" d="M763.96,-215.97C727.27,-205.97 680.74,-193.3 642.39,-182.85"/>
<polygon fill="black" stroke="black" points="642.89,-179.36 632.32,-180.11 641.05,-186.12 642.89,-179.36"/>
</g>
<!-- [root] data.aws_ami.ubuntu (expand) -->
<g id="node13" class="node">
<title>[root] data.aws_ami.ubuntu (expand)</title>
<polygon fill="none" stroke="black" points="1564,-180 1395,-180 1395,-144 1564,-144 1564,-180"/>
<text text-anchor="middle" x="1479.5" y="-158.3" font-family="Times,serif" font-size="14.00">data.aws_ami.ubuntu</text>
</g>
<!-- [root] aws_instance.Application_instance (expand)&#45;&gt;[root] data.aws_ami.ubuntu (expand) -->
<g id="edge3" class="edge">
<title>[root] aws_instance.Application_instance (expand)&#45;&gt;[root] data.aws_ami.ubuntu (expand)</title>
<path fill="none" stroke="black" d="M958.16,-223.67C1069.23,-215.06 1232.59,-200.68 1384.74,-180.04"/>
<polygon fill="black" stroke="black" points="1385.32,-183.49 1394.75,-178.67 1384.37,-176.55 1385.32,-183.49"/>
</g>
<!-- [root] aws_instance.bastion (expand) -->
<g id="node2" class="node">
<title>[root] aws_instance.bastion (expand)</title>
<polygon fill="none" stroke="black" points="1292.5,-252 1124.5,-252 1124.5,-216 1292.5,-216 1292.5,-252"/>
<text text-anchor="middle" x="1208.5" y="-230.3" font-family="Times,serif" font-size="14.00">aws_instance.bastion</text>
</g>
<!-- [root] aws_security_group.allow_ssh (expand) -->
<g id="node8" class="node">
<title>[root] aws_security_group.allow_ssh (expand)</title>
<polygon fill="none" stroke="black" points="1376.5,-180 1146.5,-180 1146.5,-144 1376.5,-144 1376.5,-180"/>
<text text-anchor="middle" x="1261.5" y="-158.3" font-family="Times,serif" font-size="14.00">aws_security_group.allow_ssh</text>
</g>
<!-- [root] aws_instance.bastion (expand)&#45;&gt;[root] aws_security_group.allow_ssh (expand) -->
<g id="edge4" class="edge">
<title>[root] aws_instance.bastion (expand)&#45;&gt;[root] aws_security_group.allow_ssh (expand)</title>
<path fill="none" stroke="black" d="M1221.6,-215.7C1227.89,-207.39 1235.55,-197.28 1242.46,-188.14"/>
<polygon fill="black" stroke="black" points="1245.3,-190.19 1248.55,-180.1 1239.72,-185.96 1245.3,-190.19"/>
</g>
<!-- [root] aws_subnet.subnet&#45;1 (expand) -->
<g id="node10" class="node">
<title>[root] aws_subnet.subnet&#45;1 (expand)</title>
<polygon fill="none" stroke="black" points="1129,-180 962,-180 962,-144 1129,-144 1129,-180"/>
<text text-anchor="middle" x="1045.5" y="-158.3" font-family="Times,serif" font-size="14.00">aws_subnet.subnet&#45;1</text>
</g>
<!-- [root] aws_instance.bastion (expand)&#45;&gt;[root] aws_subnet.subnet&#45;1 (expand) -->
<g id="edge5" class="edge">
<title>[root] aws_instance.bastion (expand)&#45;&gt;[root] aws_subnet.subnet&#45;1 (expand)</title>
<path fill="none" stroke="black" d="M1168.63,-215.88C1146.34,-206.31 1118.38,-194.3 1094.74,-184.15"/>
<polygon fill="black" stroke="black" points="1095.81,-180.8 1085.24,-180.07 1093.05,-187.23 1095.81,-180.8"/>
</g>
<!-- [root] aws_instance.bastion (expand)&#45;&gt;[root] data.aws_ami.ubuntu (expand) -->
<g id="edge6" class="edge">
<title>[root] aws_instance.bastion (expand)&#45;&gt;[root] data.aws_ami.ubuntu (expand)</title>
<path fill="none" stroke="black" d="M1274.45,-215.97C1313.38,-205.91 1362.83,-193.14 1403.41,-182.65"/>
<polygon fill="black" stroke="black" points="1404.45,-186 1413.26,-180.11 1402.7,-179.22 1404.45,-186"/>
</g>
<!-- [root] aws_internet_gateway.gw&#45;01 (expand) -->
<g id="node3" class="node">
<title>[root] aws_internet_gateway.gw&#45;01 (expand)</title>
<polygon fill="none" stroke="black" points="221,-180 0,-180 0,-144 221,-144 221,-180"/>
<text text-anchor="middle" x="110.5" y="-158.3" font-family="Times,serif" font-size="14.00">aws_internet_gateway.gw&#45;01</text>
</g>
<!-- [root] aws_vpc.my&#45;vpc&#45;01 (expand) -->
<g id="node12" class="node">
<title>[root] aws_vpc.my&#45;vpc&#45;01 (expand)</title>
<polygon fill="none" stroke="black" points="884.5,-108 730.5,-108 730.5,-72 884.5,-72 884.5,-108"/>
<text text-anchor="middle" x="807.5" y="-86.3" font-family="Times,serif" font-size="14.00">aws_vpc.my&#45;vpc&#45;01</text>
</g>
<!-- [root] aws_internet_gateway.gw&#45;01 (expand)&#45;&gt;[root] aws_vpc.my&#45;vpc&#45;01 (expand) -->
<g id="edge7" class="edge">
<title>[root] aws_internet_gateway.gw&#45;01 (expand)&#45;&gt;[root] aws_vpc.my&#45;vpc&#45;01 (expand)</title>
<path fill="none" stroke="black" d="M221.01,-145.02C223.87,-144.67 226.7,-144.33 229.5,-144 403.16,-123.65 606.94,-106.54 720.23,-97.62"/>
<polygon fill="black" stroke="black" points="720.54,-101.11 730.24,-96.84 720,-94.13 720.54,-101.11"/>
</g>
<!-- [root] aws_route_table.route&#45;table&#45;1 (expand) -->
<g id="node4" class="node">
<title>[root] aws_route_table.route&#45;table&#45;1 (expand)</title>
<polygon fill="none" stroke="black" points="336,-252 107,-252 107,-216 336,-216 336,-252"/>
<text text-anchor="middle" x="221.5" y="-230.3" font-family="Times,serif" font-size="14.00">aws_route_table.route&#45;table&#45;1</text>
</g>
<!-- [root] aws_route_table.route&#45;table&#45;1 (expand)&#45;&gt;[root] aws_internet_gateway.gw&#45;01 (expand) -->
<g id="edge8" class="edge">
<title>[root] aws_route_table.route&#45;table&#45;1 (expand)&#45;&gt;[root] aws_internet_gateway.gw&#45;01 (expand)</title>
<path fill="none" stroke="black" d="M194.35,-215.88C179.97,-206.81 162.12,-195.55 146.59,-185.76"/>
<polygon fill="black" stroke="black" points="148.08,-182.56 137.76,-180.19 144.35,-188.48 148.08,-182.56"/>
</g>
<!-- [root] aws_route_table.route&#45;table&#45;2 (expand) -->
<g id="node5" class="node">
<title>[root] aws_route_table.route&#45;table&#45;2 (expand)</title>
<polygon fill="none" stroke="black" points="468,-180 239,-180 239,-144 468,-144 468,-180"/>
<text text-anchor="middle" x="353.5" y="-158.3" font-family="Times,serif" font-size="14.00">aws_route_table.route&#45;table&#45;2</text>
</g>
<!-- [root] aws_route_table.route&#45;table&#45;2 (expand)&#45;&gt;[root] aws_vpc.my&#45;vpc&#45;01 (expand) -->
<g id="edge9" class="edge">
<title>[root] aws_route_table.route&#45;table&#45;2 (expand)&#45;&gt;[root] aws_vpc.my&#45;vpc&#45;01 (expand)</title>
<path fill="none" stroke="black" d="M463.98,-143.97C542.82,-131.81 647.39,-115.69 720.36,-104.44"/>
<polygon fill="black" stroke="black" points="721.09,-107.86 730.44,-102.88 720.02,-100.95 721.09,-107.86"/>
</g>
<!-- [root] aws_route_table_association.a (expand) -->
<g id="node6" class="node">
<title>[root] aws_route_table_association.a (expand)</title>
<polygon fill="none" stroke="black" points="665,-252 434,-252 434,-216 665,-216 665,-252"/>
<text text-anchor="middle" x="549.5" y="-230.3" font-family="Times,serif" font-size="14.00">aws_route_table_association.a</text>
</g>
<!-- [root] aws_route_table_association.a (expand)&#45;&gt;[root] aws_route_table.route&#45;table&#45;2 (expand) -->
<g id="edge10" class="edge">
<title>[root] aws_route_table_association.a (expand)&#45;&gt;[root] aws_route_table.route&#45;table&#45;2 (expand)</title>
<path fill="none" stroke="black" d="M501.8,-215.97C474.42,-206.19 439.84,-193.84 410.97,-183.52"/>
<polygon fill="black" stroke="black" points="412,-180.18 401.41,-180.11 409.65,-186.77 412,-180.18"/>
</g>
<!-- [root] aws_route_table_association.a (expand)&#45;&gt;[root] aws_subnet.subnet&#45;2 (expand) -->
<g id="edge11" class="edge">
<title>[root] aws_route_table_association.a (expand)&#45;&gt;[root] aws_subnet.subnet&#45;2 (expand)</title>
<path fill="none" stroke="black" d="M554.44,-215.7C556.67,-207.9 559.35,-198.51 561.83,-189.83"/>
<polygon fill="black" stroke="black" points="565.23,-190.68 564.61,-180.1 558.5,-188.76 565.23,-190.68"/>
</g>
<!-- [root] aws_route_table_association.b (expand) -->
<g id="node7" class="node">
<title>[root] aws_route_table_association.b (expand)</title>
<polygon fill="none" stroke="black" points="809.5,-324 577.5,-324 577.5,-288 809.5,-288 809.5,-324"/>
<text text-anchor="middle" x="693.5" y="-302.3" font-family="Times,serif" font-size="14.00">aws_route_table_association.b</text>
</g>
<!-- [root] aws_route_table_association.b (expand)&#45;&gt;[root] aws_route_table.route&#45;table&#45;1 (expand) -->
<g id="edge12" class="edge">
<title>[root] aws_route_table_association.b (expand)&#45;&gt;[root] aws_route_table.route&#45;table&#45;1 (expand)</title>
<path fill="none" stroke="black" d="M578.64,-287.97C508.27,-277.53 418.19,-264.17 346.11,-253.48"/>
<polygon fill="black" stroke="black" points="346.46,-249.99 336.06,-251.99 345.44,-256.92 346.46,-249.99"/>
</g>
<!-- [root] aws_route_table_association.b (expand)&#45;&gt;[root] aws_subnet.subnet&#45;1 (expand) -->
<g id="edge13" class="edge">
<title>[root] aws_route_table_association.b (expand)&#45;&gt;[root] aws_subnet.subnet&#45;1 (expand)</title>
<path fill="none" stroke="black" d="M809.52,-299.16C860.36,-292.52 919.11,-279.03 966.5,-252 993.23,-236.75 1015.6,-209.12 1029.64,-188.67"/>
<polygon fill="black" stroke="black" points="1032.69,-190.4 1035.31,-180.13 1026.86,-186.53 1032.69,-190.4"/>
</g>
<!-- [root] aws_security_group.allow_ssh (expand)&#45;&gt;[root] aws_vpc.my&#45;vpc&#45;01 (expand) -->
<g id="edge14" class="edge">
<title>[root] aws_security_group.allow_ssh (expand)&#45;&gt;[root] aws_vpc.my&#45;vpc&#45;01 (expand)</title>
<path fill="none" stroke="black" d="M1146.19,-144.98C1062.22,-133.21 954.56,-117.85 894.98,-108.02"/>
<polygon fill="black" stroke="black" points="895.23,-104.51 884.78,-106.31 894.07,-111.41 895.23,-104.51"/>
</g>
<!-- [root] aws_security_group.allow_ssh_3000 (expand)&#45;&gt;[root] aws_vpc.my&#45;vpc&#45;01 (expand) -->
<g id="edge15" class="edge">
<title>[root] aws_security_group.allow_ssh_3000 (expand)&#45;&gt;[root] aws_vpc.my&#45;vpc&#45;01 (expand)</title>
<path fill="none" stroke="black" d="M807.5,-143.7C807.5,-135.98 807.5,-126.71 807.5,-118.11"/>
<polygon fill="black" stroke="black" points="811,-118.1 807.5,-108.1 804,-118.1 811,-118.1"/>
</g>
<!-- [root] aws_subnet.subnet&#45;1 (expand)&#45;&gt;[root] aws_vpc.my&#45;vpc&#45;01 (expand) -->
<g id="edge16" class="edge">
<title>[root] aws_subnet.subnet&#45;1 (expand)&#45;&gt;[root] aws_vpc.my&#45;vpc&#45;01 (expand)</title>
<path fill="none" stroke="black" d="M987.58,-143.97C953.75,-134.01 910.88,-121.41 875.46,-110.99"/>
<polygon fill="black" stroke="black" points="876.26,-107.57 865.68,-108.11 874.28,-114.29 876.26,-107.57"/>
</g>
<!-- [root] data.aws_availability_zones.available (expand) -->
<g id="node14" class="node">
<title>[root] data.aws_availability_zones.available (expand)</title>
<polygon fill="none" stroke="black" points="1185,-108 904,-108 904,-72 1185,-72 1185,-108"/>
<text text-anchor="middle" x="1044.5" y="-86.3" font-family="Times,serif" font-size="14.00">data.aws_availability_zones.available</text>
</g>
<!-- [root] aws_subnet.subnet&#45;1 (expand)&#45;&gt;[root] data.aws_availability_zones.available (expand) -->
<g id="edge17" class="edge">
<title>[root] aws_subnet.subnet&#45;1 (expand)&#45;&gt;[root] data.aws_availability_zones.available (expand)</title>
<path fill="none" stroke="black" d="M1045.25,-143.7C1045.14,-135.98 1045.01,-126.71 1044.89,-118.11"/>
<polygon fill="black" stroke="black" points="1048.39,-118.05 1044.74,-108.1 1041.39,-118.15 1048.39,-118.05"/>
</g>
<!-- [root] aws_subnet.subnet&#45;2 (expand)&#45;&gt;[root] aws_vpc.my&#45;vpc&#45;01 (expand) -->
<g id="edge18" class="edge">
<title>[root] aws_subnet.subnet&#45;2 (expand)&#45;&gt;[root] aws_vpc.my&#45;vpc&#45;01 (expand)</title>
<path fill="none" stroke="black" d="M627.42,-143.97C661.25,-134.01 704.12,-121.41 739.54,-110.99"/>
<polygon fill="black" stroke="black" points="740.72,-114.29 749.32,-108.11 738.74,-107.57 740.72,-114.29"/>
</g>
<!-- [root] aws_subnet.subnet&#45;2 (expand)&#45;&gt;[root] data.aws_availability_zones.available (expand) -->
<g id="edge19" class="edge">
<title>[root] aws_subnet.subnet&#45;2 (expand)&#45;&gt;[root] data.aws_availability_zones.available (expand)</title>
<path fill="none" stroke="black" d="M653.21,-145.37C656,-144.9 658.77,-144.44 661.5,-144 740.3,-131.27 828.52,-118.94 900.42,-109.37"/>
<polygon fill="black" stroke="black" points="901,-112.82 910.46,-108.04 900.08,-105.89 901,-112.82"/>
</g>
<!-- [root] provider[&quot;registry.terraform.io/hashicorp/aws&quot;] -->
<g id="node15" class="node">
<title>[root] provider[&quot;registry.terraform.io/hashicorp/aws&quot;]</title>
<polygon fill="none" stroke="black" points="1044.5,-36 719.24,-18 1044.5,0 1369.76,-18 1044.5,-36"/>
<text text-anchor="middle" x="1044.5" y="-14.3" font-family="Times,serif" font-size="14.00">provider[&quot;registry.terraform.io/hashicorp/aws&quot;]</text>
</g>
<!-- [root] aws_vpc.my&#45;vpc&#45;01 (expand)&#45;&gt;[root] provider[&quot;registry.terraform.io/hashicorp/aws&quot;] -->
<g id="edge20" class="edge">
<title>[root] aws_vpc.my&#45;vpc&#45;01 (expand)&#45;&gt;[root] provider[&quot;registry.terraform.io/hashicorp/aws&quot;]</title>
<path fill="none" stroke="black" d="M865.17,-71.97C901.9,-61.12 949.32,-47.11 986.17,-36.23"/>
<polygon fill="black" stroke="black" points="987.19,-39.58 995.79,-33.39 985.2,-32.86 987.19,-39.58"/>
</g>
<!-- [root] data.aws_ami.ubuntu (expand)&#45;&gt;[root] provider[&quot;registry.terraform.io/hashicorp/aws&quot;] -->
<g id="edge21" class="edge">
<title>[root] data.aws_ami.ubuntu (expand)&#45;&gt;[root] provider[&quot;registry.terraform.io/hashicorp/aws&quot;]</title>
<path fill="none" stroke="black" d="M1427.03,-143.87C1344,-116.77 1183.12,-64.25 1098.9,-36.76"/>
<polygon fill="black" stroke="black" points="1099.86,-33.39 1089.27,-33.61 1097.69,-40.04 1099.86,-33.39"/>
</g>
<!-- [root] data.aws_availability_zones.available (expand)&#45;&gt;[root] provider[&quot;registry.terraform.io/hashicorp/aws&quot;] -->
<g id="edge22" class="edge">
<title>[root] data.aws_availability_zones.available (expand)&#45;&gt;[root] provider[&quot;registry.terraform.io/hashicorp/aws&quot;]</title>
<path fill="none" stroke="black" d="M1044.5,-71.7C1044.5,-63.98 1044.5,-54.71 1044.5,-46.11"/>
<polygon fill="black" stroke="black" points="1048,-46.1 1044.5,-36.1 1041,-46.1 1048,-46.1"/>
</g>
<!-- [root] provider[&quot;registry.terraform.io/hashicorp/aws&quot;] (close) -->
<g id="node16" class="node">
<title>[root] provider[&quot;registry.terraform.io/hashicorp/aws&quot;] (close)</title>
<ellipse fill="none" stroke="black" cx="765.5" cy="-378" rx="291.65" ry="18"/>
<text text-anchor="middle" x="765.5" y="-374.3" font-family="Times,serif" font-size="14.00">[root] provider[&quot;registry.terraform.io/hashicorp/aws&quot;] (close)</text>
</g>
<!-- [root] provider[&quot;registry.terraform.io/hashicorp/aws&quot;] (close)&#45;&gt;[root] aws_instance.Application_instance (expand) -->
<g id="edge23" class="edge">
<title>[root] provider[&quot;registry.terraform.io/hashicorp/aws&quot;] (close)&#45;&gt;[root] aws_instance.Application_instance (expand)</title>
<path fill="none" stroke="black" d="M788.88,-359.99C799.82,-350.67 811.88,-338.14 818.5,-324 827.51,-304.74 829.17,-280.58 828.76,-262.3"/>
<polygon fill="black" stroke="black" points="832.25,-262.13 828.32,-252.29 825.26,-262.44 832.25,-262.13"/>
</g>
<!-- [root] provider[&quot;registry.terraform.io/hashicorp/aws&quot;] (close)&#45;&gt;[root] aws_instance.bastion (expand) -->
<g id="edge24" class="edge">
<title>[root] provider[&quot;registry.terraform.io/hashicorp/aws&quot;] (close)&#45;&gt;[root] aws_instance.bastion (expand)</title>
<path fill="none" stroke="black" d="M818.06,-360.15C900.02,-333.88 1057.95,-283.26 1145.75,-255.11"/>
<polygon fill="black" stroke="black" points="1146.87,-258.43 1155.32,-252.05 1144.73,-251.77 1146.87,-258.43"/>
</g>
<!-- [root] provider[&quot;registry.terraform.io/hashicorp/aws&quot;] (close)&#45;&gt;[root] aws_route_table_association.a (expand) -->
<g id="edge25" class="edge">
<title>[root] provider[&quot;registry.terraform.io/hashicorp/aws&quot;] (close)&#45;&gt;[root] aws_route_table_association.a (expand)</title>
<path fill="none" stroke="black" d="M630.9,-361.94C607.55,-353.84 585.38,-341.79 568.5,-324 552.99,-307.66 548.87,-281.91 548.25,-262.3"/>
<polygon fill="black" stroke="black" points="551.75,-262.13 548.22,-252.14 544.75,-262.15 551.75,-262.13"/>
</g>
<!-- [root] provider[&quot;registry.terraform.io/hashicorp/aws&quot;] (close)&#45;&gt;[root] aws_route_table_association.b (expand) -->
<g id="edge26" class="edge">
<title>[root] provider[&quot;registry.terraform.io/hashicorp/aws&quot;] (close)&#45;&gt;[root] aws_route_table_association.b (expand)</title>
<path fill="none" stroke="black" d="M747.7,-359.7C738.9,-351.14 728.12,-340.66 718.5,-331.3"/>
<polygon fill="black" stroke="black" points="720.7,-328.57 711.09,-324.1 715.82,-333.58 720.7,-328.57"/>
</g>
<!-- [root] root -->
<g id="node17" class="node">
<title>[root] root</title>
<ellipse fill="none" stroke="black" cx="765.5" cy="-450" rx="58.49" ry="18"/>
<text text-anchor="middle" x="765.5" y="-446.3" font-family="Times,serif" font-size="14.00">[root] root</text>
</g>
<!-- [root] root&#45;&gt;[root] provider[&quot;registry.terraform.io/hashicorp/aws&quot;] (close) -->
<g id="edge27" class="edge">
<title>[root] root&#45;&gt;[root] provider[&quot;registry.terraform.io/hashicorp/aws&quot;] (close)</title>
<path fill="none" stroke="black" d="M765.5,-431.7C765.5,-423.98 765.5,-414.71 765.5,-406.11"/>
<polygon fill="black" stroke="black" points="769,-406.1 765.5,-396.1 762,-406.1 769,-406.1"/>
</g>
</g>
</svg>
